<svg viewBox="20 20 400 400">
    <defs>
        <pattern x="0" y="0" width="23.294785382179274" height="23.294785382179274" patternUnits="userSpaceOnUse">
            <rect x="0" y="0" width="23.294785382179274" height="23.294785382179274"></rect>
            <circle cx="0" cy="0" r="1.0919430647896535"></circle>
            <circle cx="23.294785382179274" cy="0" r="1.0919430647896535"></circle>
            <circle cx="23.294785382179274" cy="23.294785382179274" r="1.0919430647896535"></circle>
            <circle cx="0" cy="23.294785382179274" r="1.0919430647896535"></circle>
        </pattern>
    </defs>
    <rect fill="url(#o_f20dd7d45_2)" stroke-width="0.7279620431931023" x="0" y="0" width="512" height="512"></rect>
    <svg xmlns="http://www.w3.org/2000/svg" width="512" height="512" style="overflow: hidden;" viewBox="0 0 512 512">
        <rect data-uid="o_f20dd7d45_4" data-fl-background="" x="0" y="0" width="512" height="512" fill="#1c1c1c"></rect>
        <defs transform="matrix(0.9371999116559672, 0, 0, 0.9371999116559672, 16.07750972000454, 46.18248336054694)" data-uid="o_f20dd7d45_5">
            <path id="b" data-type="circle" data-cx="44.9" data-cy="54" data-r="38.4" d="M44.9 54m-38.4 0a38.4 38.4 0 1 0 76.8 0a38.4 38.4 0 1 0 -76.8 0" data-uid="o_f20dd7d45_6"></path>
            <clipPath id="a" transform="matrix(1, 0, 0, 1, 0, 0)" fill="rgb(0, 129, 228, 1)" data-uid="o_f20dd7d45_7">
                <use href="#b" overflow="visible" fill="rgb(0, 129, 228, 1)" data-uid="o_f20dd7d45_8"></use>
            </clipPath>
        </defs>
        <g transform="matrix(0.999999001185568, 0, 0, 0.999999001185568, 0.00017440482804470387, 0.00018226110237788465)" data-uid="o_f20dd7d45_9">
            <path clip-path="url(#a)" d="M78.4 92.5c0.9-0.4 1.7-0.9 2.4-1.6c0.6-0.6 1-1.2 1.4-1.9c2.4 0.6 5.1-0.1 7-2   c1-1 1.6-2.1 1.9-3.3c0.9-0.4 1.7-0.9 2.4-1.6c0.9-0.9 1.4-1.9 1.8-2.9c2.1 0.1 4.2-0.6 5.7-2.1c1.8-1.8 2.4-4.2 2.1-6.5   c0.2-0.2 0.5-0.4 0.7-0.6c1.4-1.4 2.1-3.2 2.2-5c1.6-2.8 1.1-6.4-1.2-8.8c-2.9-2.9-7.6-2.9-10.5 0c-1.4 1.4-2.1 3.2-2.2 5   c-0.8 1.5-1.1 3.2-0.8 4.8c-0.2 0.2-0.5 0.4-0.7 0.6c-0.9 0.9-1.4 1.9-1.8 2.9c-2.1-0.1-4.2 0.6-5.7 2.1c-1 1-1.6 2.1-1.9 3.3   c-0.9 0.4-1.7 0.9-2.4 1.6c-0.4 0.4-0.7 0.8-1 1.2c-1.7-0.6-3.6-0.6-5.3 0.1c-0.4-0.9-1-1.8-1.7-2.6c-3-3-8-3.1-11.1-0.1   c-0.2-1.7-1-3.4-2.3-4.7c-1.1-1.1-2.5-1.8-4-2.1c0.1-1.8-0.4-3.6-1.5-5.1c0.2-1.8-0.2-3.7-1.2-5.3c0.3-0.1 0.5-0.2 0.7-0.4   c0.4-0.4 0.5-0.9 0.4-1.4c0.4 0 0.7-0.2 1-0.4c0.4-0.4 0.5-1 0.4-1.6c0.4 0 0.9-0.1 1.2-0.4c0.3-0.3 0.5-0.8 0.4-1.2   c0.2-0.1 0.5-0.2 0.6-0.4c0.3-0.3 0.4-0.7 0.4-1c0.1 0 0.2-0.1 0.3-0.2c0.1-0.1 0.2-0.3 0.3-0.5c0.3 0 0.6-0.1 0.8-0.3   c0.2-0.2 0.3-0.6 0.3-0.9c0 0 0 0 0.1 0c0.4-0.4 0.4-1 0-1.4c-0.4-0.4-1-0.4-1.4 0c-0.2 0.2-0.3 0.4-0.3 0.6   c-0.3 0-0.6 0.1-0.8 0.3c-0.2 0.2-0.3 0.5-0.3 0.8c0 0 0 0.1-0.1 0.1c-0.5-0.1-1 0.1-1.4 0.4c-0.3 0.3-0.5 0.8-0.4 1.2   c0 0-0.1 0-0.1 0.1c-0.4-0.1-0.9 0.1-1.3 0.4c-0.3 0.3-0.5 0.7-0.4 1.2c-0.5-0.2-1.2-0.1-1.6 0.4c-0.2 0.2-0.4 0.5-0.4 0.8   c-0.6-0.2-1.2-0.1-1.7 0.3c-0.2 0.2-0.3 0.4-0.4 0.6c-0.7-0.3-1.4-0.4-2.1-0.5c-0.1-0.3-0.2-0.5-0.4-0.7c0 0-0.1-0.1-0.2-0.1   c0.1-0.1 0.3-0.2 0.4-0.3c0.6-0.6 0.6-1.6 0-2.2c0 0-0.1-0.1-0.1-0.1c0 0 0.1-0.1 0.1-0.1c0.4-0.4 0.5-0.9 0.4-1.4   c0.4 0 0.8-0.1 1.1-0.4c0.3-0.3 0.5-0.8 0.4-1.2c0.3-0.1 0.5-0.2 0.7-0.4c0.4-0.4 0.5-1 0.4-1.6c0.4 0 0.7-0.2 1-0.4   c0.4-0.4 0.5-1.1 0.4-1.6c0.1 0 0.1 0 0.2-0.1c0.4 0.2 0.8 0.1 1.1-0.2c0.2-0.2 0.3-0.6 0.3-0.9c0 0 0 0 0.1 0c0.4-0.4 0.4-1 0-1.4   c-0.4-0.4-1-0.4-1.4 0c-0.2 0.2-0.3 0.4-0.3 0.6c-0.3 0-0.6 0.1-0.8 0.3c-0.2 0.2-0.3 0.5-0.3 0.7c-0.5-0.1-0.9 0.1-1.3 0.4   c-0.3 0.3-0.4 0.6-0.4 0.9c-0.5-0.2-1.1-0.1-1.6 0.4c-0.4 0.4-0.5 0.8-0.4 1.3c-0.5-0.1-0.9 0.1-1.3 0.4c-0.1 0.1-0.2 0.3-0.3 0.4   c-0.5-0.2-1.2-0.1-1.6 0.3c-0.1 0.1-0.3 0.3-0.3 0.5c-0.1-0.1-0.1-0.2-0.2-0.3c-0.6-0.6-1.6-0.6-2.2 0c-0.1 0.1-0.1 0.1-0.1 0.2   c-0.9-0.2-1.9-0.2-2.8 0c0-0.4-0.2-0.8-0.5-1.1c-0.2-0.2-0.5-0.4-0.9-0.4c-0.3-0.5-0.7-0.9-1.1-1.3c-1.1-1.1-2.5-1.8-3.9-2.1   c0-0.1 0-0.2-0.1-0.3c0.7-2.6 0-5.5-2.1-7.6c-1.8-1.8-4.2-2.5-6.5-2.3c1-1.9 1.2-4.2 0.5-6.2c1.4-1.6 2-3.7 1.9-5.8   c1.6-0.2 3.1-0.9 4.4-2.1c0.8-0.8 1.3-1.7 1.7-2.6c2.4 0.6 5-0.1 6.9-2c2.1-2.1 2.7-5.2 1.7-7.8c1.9 0 3.8-0.7 5.2-2.2   c2.9-2.9 2.9-7.6 0-10.5c-2.9-2.9-7.6-2.9-10.5 0c-0.9 0.9-1.6 2-1.9 3.2c-2.4-0.5-4.9 0.2-6.7 2c-2 2-2.6 4.7-1.9 7.2   c-1.8 0-3.6 0.8-5 2.2c-1.5 1.5-2.2 3.4-2.2 5.3c-1.9 0.1-3.8 0.9-5.2 2.3c-2.2 2.2-2.8 5.4-1.9 8.2c-2.3 2.6-2.5 6.4-0.8 9.3   c-0.5 0.2-0.9 0.5-1.3 0.9c-1.1 1.1-1.6 2.5-1.6 4.2c-3.5 0.1-6.5 1.1-8.5 3.1c-7.9 7.9-0.5 28 16.5 44.9   c17 17 37.1 24.3 44.9 16.5c0.7-0.7 1.2-1.4 1.7-2.3c2.9 0.9 5.5 0.6 7.2-1c4.4 3 9.3 3.6 11.8 1.1C79 98.3 79.3 95.5 78.4 92.5z" transform="matrix(2.7960410118103027, 0, 0, 2.7960410118103027, 117.64301300048828, 96.7061538696289)" fill="rgb(0, 129, 228, 1)" data-uid="o_f20dd7d45_10"></path>
            <path d="M86.8 12.1l0-0.1l-0.2-0.2l-0.1 0c-0.1 0-1.7-0.4-3.9-0.4c-2.6 0-6.2 0.5-8.5 2.8l-8.7 8.7  c-0.7 0.3-2 0.6-4.8 0.6c-5.2 0-7 1.9-9.4 4.3l-0.5 0.5c-0.2 0.2-1 1 3.1 6.2L49.2 39c-0.2 0.2-0.4 0.6-0.4 0.9  c0 0.3 0.1 0.7 0.4 0.9l1.9 1.9c0.5 0.5 1.3 0.5 1.8 0l4.2-4.2c0.5 0.6 0.9 1 1.3 1.4c0.4 0.4 0.9 0.8 1.4 1.3l-4.2 4.2  c-0.5 0.5-0.5 1.3 0 1.8l1.9 1.9c0.2 0.2 0.6 0.4 0.9 0.4s0.7-0.1 0.9-0.4l4.6-4.6c1.2 0.9 4.4 3.3 5.6 3.3c0.3 0 0.5-0.1 0.6-0.2  l0.5-0.5c2.4-2.3 4.2-4.2 4.3-9.4c0-2.7 0.3-4 0.5-4.6l8.8-8.8C88.5 20.4 86.9 12.5 86.8 12.1z M71.3 26.2l-2.2-0.7l8.9-5.3  l-3.8 4.7l-0.5 0.6l0.8 0.2l2.2 0.5l-9.3 5.3l4.1-4.5l0.5-0.6L71.3 26.2z M57.6 37.5l-0.4-0.4l-5 5c-0.1 0.1-0.3 0.1-0.4 0l-1.9-1.9  c-0.1-0.1-0.1-0.3 0-0.4l5.2-5.2l-0.2-0.3l-0.1-0.1c-1.6-2-3.3-4.6-3.3-5.2l0.4-0.4c2.3-2.3 3.9-3.9 8.7-4c2.4 0 4.2-0.3 5.2-0.8  l8.9-8.8c2.1-2.1 5.4-2.5 7.8-2.5c1.5 0 2.7 0.2 3.3 0.3L80 18.5l-12.1 7.2l3.2 1l-6.2 6.9l0.2-0.3l-6 6  C58.7 38.8 58.2 38.2 57.6 37.5z" transform="matrix(2.7960410118103027, 0, 0, 2.7960410118103027, 117.64301300048828, 96.7061538696289)" fill="rgb(0, 129, 228, 1)" data-uid="o_f20dd7d45_11"></path>
            <path transform="matrix(2.7960410118103027, 0, 0, 2.7960410118103027, 117.64301300048828, 96.7061538696289)" data-type="circle" data-cx="52.5" data-cy="16.2" data-r="0.6" d="M52.5 16.2m-0.6 0a0.6 0.6 0 1 0 1.2 0a0.6 0.6 0 1 0 -1.2 0" fill="rgb(0, 129, 228, 1)" data-uid="o_f20dd7d45_12"></path>
            <path transform="matrix(2.7960410118103027, 0, 0, 2.7960410118103027, 117.64301300048828, 96.7061538696289)" data-type="circle" data-cx="83.4" data-cy="29.8" data-r="0.6" d="M83.4 29.8m-0.6 0a0.6 0.6 0 1 0 1.2 0a0.6 0.6 0 1 0 -1.2 0" fill="rgb(0, 129, 228, 1)" data-uid="o_f20dd7d45_13"></path>
            <path transform="matrix(2.7960410118103027, 0, 0, 2.7960410118103027, 117.64301300048828, 96.7061538696289)" data-type="circle" data-cx="56.8" data-cy="15.2" data-r="0.5" d="M56.8 15.2m-0.5 0a0.5 0.5 0 1 0 1 0a0.5 0.5 0 1 0 -1 0" fill="rgb(0, 129, 228, 1)" data-uid="o_f20dd7d45_14"></path>
            <path transform="matrix(2.7960410118103027, 0, 0, 2.7960410118103027, 117.64301300048828, 96.7061538696289)" data-type="circle" data-cx="29.7" data-cy="34.9" data-r="0.5" d="M29.7 34.9m-0.5 0a0.5 0.5 0 1 0 1 0a0.5 0.5 0 1 0 -1 0" fill="rgb(0, 129, 228, 1)" data-uid="o_f20dd7d45_15"></path>
            <path transform="matrix(2.7960410118103027, 0, 0, 2.7960410118103027, 117.64301300048828, 96.7061538696289)" data-type="circle" data-cx="20.6" data-cy="69.5" data-r="0.5" d="M20.6 69.5m-0.5 0a0.5 0.5 0 1 0 1 0a0.5 0.5 0 1 0 -1 0" fill="#e6e0bb" data-uid="o_f20dd7d45_16"></path>
            <path transform="matrix(2.7960410118103027, 0, 0, 2.7960410118103027, 117.64301300048828, 96.7061538696289)" data-type="circle" data-cx="39.1" data-cy="40.3" data-r="1.1" d="M39.1 40.3m-1.1 0a1.1 1.1 0 1 0 2.2 0a1.1 1.1 0 1 0 -2.2 0" fill="rgb(0, 129, 228, 1)" data-uid="o_f20dd7d45_17"></path>
            <path transform="matrix(2.7960410118103027, 0, 0, 2.7960410118103027, 117.64301300048828, 96.7061538696289)" data-type="circle" data-cx="21.7" data-cy="57.6" data-r="1.1" d="M21.7 57.6m-1.1 0a1.1 1.1 0 1 0 2.2 0a1.1 1.1 0 1 0 -2.2 0" fill="#e6e0bb" data-uid="o_f20dd7d45_18"></path>
            <path transform="matrix(2.7960410118103027, 0, 0, 2.7960410118103027, 117.64301300048828, 96.7061538696289)" data-type="circle" data-cx="46" data-cy="61.7" data-r="0.6" d="M46 61.7m-0.6 0a0.6 0.6 0 1 0 1.2 0a0.6 0.6 0 1 0 -1.2 0" fill="#e6e0bb" data-uid="o_f20dd7d45_19"></path>
            <path transform="matrix(2.7960410118103027, 0, 0, 2.7960410118103027, 117.64301300048828, 96.7061538696289)" data-type="circle" data-cx="57.8" data-cy="59.9" data-r="0.4" d="M57.8 59.9m-0.4 0a0.4 0.4 0 1 0 0.8 0a0.4 0.4 0 1 0 -0.8 0" fill="rgb(0, 129, 228, 1)" data-uid="o_f20dd7d45_20"></path>
            <path transform="matrix(2.7960410118103027, 0, 0, 2.7960410118103027, 117.64301300048828, 96.7061538696289)" data-type="circle" data-cx="66.7" data-cy="58" data-r="0.9" d="M66.7 58m-0.9 0a0.9 0.9 0 1 0 1.8 0a0.9 0.9 0 1 0 -1.8 0" fill="rgb(0, 129, 228, 1)" data-uid="o_f20dd7d45_21"></path>
            <path transform="matrix(2.7960410118103027, 0, 0, 2.7960410118103027, 117.64301300048828, 96.7061538696289)" data-type="circle" data-cx="93" data-cy="44" data-r="0.6" d="M93 44m-0.6 0a0.6 0.6 0 1 0 1.2 0a0.6 0.6 0 1 0 -1.2 0" fill="rgb(0, 129, 228, 1)" data-uid="o_f20dd7d45_22"></path>
            <path transform="matrix(2.7960410118103027, 0, 0, 2.7960410118103027, 117.64301300048828, 96.7061538696289)" data-type="circle" data-cx="81.6" data-cy="46.1" data-r="0.8" d="M81.6 46.1m-0.8 0a0.8 0.8 0 1 0 1.6 0a0.8 0.8 0 1 0 -1.6 0" fill="rgb(0, 129, 228, 1)" data-uid="o_f20dd7d45_23"></path>
            <path transform="matrix(2.7960410118103027, 0, 0, 2.7960410118103027, 117.64301300048828, 96.7061538696289)" data-type="circle" data-cx="18.9" data-cy="43.2" data-r="0.8" d="M18.9 43.2m-0.8 0a0.8 0.8 0 1 0 1.6 0a0.8 0.8 0 1 0 -1.6 0" fill="#e6e0bb" data-uid="o_f20dd7d45_24"></path>
            <path transform="matrix(2.7960410118103027, 0, 0, 2.7960410118103027, 117.64301300048828, 96.7061538696289)" data-type="circle" data-cx="58.5" data-cy="79.4" data-r="0.4" d="M58.5 79.4m-0.4 0a0.4 0.4 0 1 0 0.8 0a0.4 0.4 0 1 0 -0.8 0" fill="#e6e0bb" data-uid="o_f20dd7d45_25"></path>
            <path transform="matrix(2.7960410118103027, 0, 0, 2.7960410118103027, 117.64301300048828, 96.7061538696289)" data-type="circle" data-cx="95.5" data-cy="42" data-r="0.4" d="M95.5 42m-0.4 0a0.4 0.4 0 1 0 0.8 0a0.4 0.4 0 1 0 -0.8 0" fill="rgb(0, 129, 228, 1)" data-uid="o_f20dd7d45_26"></path>
            <path transform="matrix(2.7960410118103027, 0, 0, 2.7960410118103027, 117.64301300048828, 96.7061538696289)" data-type="circle" data-cx="95.7" data-cy="45.7" data-r="0.4" d="M95.7 45.7m-0.4 0a0.4 0.4 0 1 0 0.8 0a0.4 0.4 0 1 0 -0.8 0" fill="rgb(0, 129, 228, 1)" data-uid="o_f20dd7d45_27"></path>
            <path transform="matrix(2.7960410118103027, 0, 0, 2.7960410118103027, 117.64301300048828, 96.7061538696289)" data-type="circle" data-cx="67.4" data-cy="8.2" data-r="0.5" d="M67.4 8.2m-0.5 0a0.5 0.5 0 1 0 1 0a0.5 0.5 0 1 0 -1 0" fill="rgb(0, 129, 228, 1)" data-uid="o_f20dd7d45_28"></path>
            <path transform="matrix(2.7960410118103027, 0, 0, 2.7960410118103027, 117.64301300048828, 96.7061538696289)" data-type="polygon" d="M28.9 64.4L33.6 64.8L28.9 65.2L28.5 69.9L28.1 65.2L23.4 64.8L28.1 64.4L28.5 59.7Z" fill="#e6e0bb" data-uid="o_f20dd7d45_29"></path>
            <path transform="matrix(2.7960410118103027, 0, 0, 2.7960410118103027, 117.64301300048828, 96.7061538696289)" data-type="polygon" d="M49.3 74.6L52.1 74.8L49.3 75.1L49.1 77.9L48.8 75.1L46 74.8L48.8 74.6L49.1 71.8Z" fill="rgb(0, 129, 228, 1)" data-uid="o_f20dd7d45_30"></path>
            <path transform="matrix(2.7960410118103027, 0, 0, 2.7960410118103027, 117.64301300048828, 96.7061538696289)" data-type="polygon" d="M80.7 62L83.2 62.2L80.7 62.5L80.5 64.9L80.3 62.5L77.9 62.2L80.3 62L80.5 59.6Z" fill="rgb(0, 129, 228, 1)" data-uid="o_f20dd7d45_31"></path>
            <path transform="matrix(2.7960410118103027, 0, 0, 2.7960410118103027, 117.64301300048828, 96.7061538696289)" data-type="polygon" d="M39.9 21.9L47.1 22.5L39.9 23.1L39.2 30.4L38.6 23.1L31.3 22.5L38.6 21.9L39.2 14.6Z" fill="rgb(0, 129, 228, 1)" data-uid="o_f20dd7d45_32"></path>
        </g>
        <!-- <path text="Aryan" fill="rgb(0, 129, 228, 1)" space="preserve" text-anchor="middle" offset="0.5" font-scale="contain" font-size="48" font-family="Orbitron" transform="matrix(0.9239557609741321, 0, 0, 0.9239557609741321, 255.8881993227459, 407.9955024082918)" data-fl-textpath="" font-weight="400" font-style="normal" data-uid="o_f20dd7d45_33" d="M-72.70000000000002-34.56L-72.70000000000002-34.56L-49.66000000000001-34.56Q-47.26000000000001-34.56 -45.58000000000001-32.88Q-43.900000000000006-31.2 -43.900000000000006-28.8L-43.900000000000006-28.8L-43.900000000000006 0L-47.78000000000001 0L-47.78000000000001-12.62L-74.57000000000001-12.62L-74.57000000000001 0L-78.46000000000001 0L-78.46000000000001-28.8Q-78.46000000000001-31.2 -76.78000000000002-32.88Q-75.10000000000001-34.56 -72.70000000000002-34.56ZM-74.57000000000001-28.8L-74.57000000000001-16.51L-47.78000000000001-16.51L-47.78000000000001-28.8Q-47.78000000000001-29.57 -48.34000000000001-30.12Q-48.89000000000001-30.67 -49.66000000000001-30.67L-49.66000000000001-30.67L-72.70000000000002-30.67Q-73.46000000000001-30.67 -74.02000000000001-30.12Q-74.57000000000001-29.57 -74.57000000000001-28.8L-74.57000000000001-28.8ZM-32.81200000000001-27.84L-32.81200000000001-27.84L-17.16200000000001-27.84L-17.16200000000001-23.9L-32.81200000000001-23.9Q-33.57200000000001-23.9 -34.132000000000005-23.35Q-34.68200000000001-22.8 -34.68200000000001-22.03L-34.68200000000001-22.03L-34.68200000000001 0L-38.61200000000001 0L-38.61200000000001-22.03Q-38.61200000000001-24.43 -36.912000000000006-26.14Q-35.21200000000001-27.84 -32.81200000000001-27.84ZM 13.803999999999991-27.74L 13.803999999999991 5.18Q 13.803999999999991 7.63  12.123999999999992 9.34Q 10.443999999999992 11.04  7.993999999999993 11.04L 7.993999999999993 11.04L-9.386000000000008 11.04L-9.386000000000008 7.06L 7.993999999999993 7.06Q 8.763999999999992 7.06  9.313999999999993 6.5Q 9.86399999999999 5.95  9.86399999999999 5.18L 9.86399999999999 5.18L 9.86399999999999 0L-8.716000000000008 0Q-11.116000000000009 0 -12.816000000000008-1.7Q-14.516000000000009-3.41 -14.516000000000009-5.81L-14.516000000000009-5.81L-14.516000000000009-27.74L-10.58600000000001-27.74L-10.58600000000001-5.81Q-10.58600000000001-5.04 -10.036000000000008-4.49Q-9.47600000000001-3.94 -8.716000000000008-3.94L-8.716000000000008-3.94L 7.993999999999993-3.94Q 8.763999999999992-3.94  9.313999999999993-4.49Q 9.86399999999999-5.04  9.86399999999999-5.81L 9.86399999999999-5.81L 9.86399999999999-27.74L 13.803999999999991-27.74ZM 17.739999999999995-27.84L 40.25-27.84Q 42.699999999999996-27.84  44.39999999999999-26.14Q 46.099999999999994-24.43  46.099999999999994-22.03L 46.099999999999994-22.03L 46.099999999999994 0L 23.539999999999996 0Q 21.139999999999993 0  19.439999999999994-1.7Q 17.739999999999995-3.41  17.739999999999995-5.81L 17.739999999999995-5.81L 17.739999999999995-15.89L 42.11999999999999-15.89L 42.11999999999999-22.03Q 42.11999999999999-22.8  41.56999999999999-23.35Q 41.019999999999996-23.9  40.25-23.9L 40.25-23.9L 17.739999999999995-23.9L 17.739999999999995-27.84ZM 23.539999999999996-3.94L 42.11999999999999-3.94L 42.11999999999999-11.95L 21.669999999999995-11.95L 21.669999999999995-5.81Q 21.669999999999995-5.04  22.219999999999995-4.49Q 22.779999999999994-3.94  23.539999999999996-3.94L 23.539999999999996-3.94ZM 50.422-27.84L 72.982-27.84Q 75.382-27.84  77.092-26.14Q 78.792-24.43  78.792-22.03L 78.792-22.03L 78.792 0L 74.852 0L 74.852-22.03Q 74.852-22.8  74.30199999999999-23.35Q 73.75200000000001-23.9  72.982-23.9L 72.982-23.9L 56.282-23.9Q 55.512-23.9  54.932-23.35Q 54.362-22.8  54.362-22.03L 54.362-22.03L 54.362 0L 50.422 0L 50.422-27.84Z"></path> -->
        <!-- <path text="YOUR SLOGAN HERE" fill="rgb(0, 129, 228, 1)" space="preserve" text-anchor="middle" offset="0.5" font-scale="contain" font-size="48" font-family="Orbitron" transform="matrix(0.3978943706017369, 0, 0, 0.3978943706017369, 256.3239139987867, 440.3881992106357)" font-weight="400" font-style="normal" data-fl-textpath="" letter-spacing="9" data-uid="o_f20dd7d45_34" d="M-336.014-17.66L-322.764-34.56L-318.204-34.56L-334.09400000000005-13.01L-334.09400000000005 0L-337.98400000000004 0L-337.98400000000004-13.01L-353.86400000000003-34.56L-349.40400000000005-34.56L-336.014-17.66ZM-298.646-34.56L-298.646-34.56L-275.60600000000005-34.56Q-273.206-34.56 -271.52600000000007-32.88Q-269.84600000000006-31.2 -269.84600000000006-28.8L-269.84600000000006-28.8L-269.84600000000006-5.76Q-269.84600000000006-3.36 -271.52600000000007-1.68Q-273.206 0 -275.60600000000005 0L-275.60600000000005 0L-298.646 0Q-301.04600000000005 0 -302.72600000000006-1.68Q-304.40600000000006-3.36 -304.40600000000006-5.76L-304.40600000000006-5.76L-304.40600000000006-28.8Q-304.40600000000006-31.2 -302.72600000000006-32.88Q-301.04600000000005-34.56 -298.646-34.56ZM-298.646-3.89L-298.646-3.89L-275.60600000000005-3.89Q-274.836-3.89 -274.28600000000006-4.44Q-273.73600000000005-4.99 -273.73600000000005-5.76L-273.73600000000005-5.76L-273.73600000000005-28.8Q-273.73600000000005-29.57 -274.28600000000006-30.12Q-274.836-30.67 -275.60600000000005-30.67L-275.60600000000005-30.67L-298.646-30.67Q-299.41600000000005-30.67 -299.96600000000007-30.12Q-300.516-29.57 -300.516-28.8L-300.516-28.8L-300.516-5.76Q-300.516-4.99 -299.96600000000007-4.44Q-299.41600000000005-3.89 -298.646-3.89ZM-224.99200000000008-5.76L-224.99200000000008-5.76L-224.99200000000008-34.56L-221.10200000000006-34.56L-221.10200000000006-5.76Q-221.10200000000006-3.36 -222.78200000000007-1.68Q-224.46200000000007 0 -226.86200000000008 0L-226.86200000000008 0L-249.90200000000007 0Q-252.30200000000008 0 -253.98200000000006-1.68Q-255.66200000000006-3.36 -255.66200000000006-5.76L-255.66200000000006-5.76L-255.66200000000006-34.56L-251.77200000000008-34.56L-251.77200000000008-5.76Q-251.77200000000008-4.99 -251.22200000000007-4.44Q-250.67200000000005-3.89 -249.90200000000007-3.89L-249.90200000000007-3.89L-226.86200000000008-3.89Q-226.09200000000007-3.89 -225.54200000000006-4.44Q-224.99200000000008-4.99 -224.99200000000008-5.76ZM-172.30800000000005-28.75L-172.30800000000005-28.75L-172.30800000000005-18.62Q-172.30800000000005-16.22 -173.98800000000006-14.54Q-175.66800000000006-12.86 -178.06800000000007-12.86L-178.06800000000007-12.86L-183.34800000000007-12.86L-172.49800000000008 0L-177.63800000000006 0L-188.43800000000007-12.86L-201.10800000000006-12.86Q-201.53800000000007-12.86 -202.97800000000007-13.06L-202.97800000000007-13.06L-202.97800000000007 0L-206.86800000000008 0L-206.86800000000008-34.51L-178.06800000000007-34.51Q-175.66800000000006-34.51 -173.98800000000006-32.83Q-172.30800000000005-31.15 -172.30800000000005-28.75ZM-201.10800000000006-16.8L-201.10800000000006-16.8L-178.06800000000007-16.8Q-177.29800000000006-16.8 -176.76800000000006-17.33Q-176.24800000000008-17.86 -176.24800000000008-18.62L-176.24800000000008-18.62L-176.24800000000008-28.75Q-176.24800000000008-29.52 -176.76800000000006-30.07Q-177.29800000000006-30.62 -178.06800000000007-30.62L-178.06800000000007-30.62L-201.10800000000006-30.62Q-201.87800000000007-30.62 -202.42800000000005-30.07Q-202.97800000000007-29.52 -202.97800000000007-28.75L-202.97800000000007-28.75L-202.97800000000007-18.62Q-202.97800000000007-17.86 -202.42800000000005-17.33Q-201.87800000000007-16.8 -201.10800000000006-16.8ZM-101.84200000000007-28.8L-101.84200000000007-28.8L-101.84200000000007-27.46L-105.73200000000006-27.46L-105.73200000000006-28.8Q-105.73200000000006-29.57 -106.28200000000007-30.12Q-106.83200000000005-30.67 -107.60200000000006-30.67L-107.60200000000006-30.67L-130.64200000000005-30.67Q-131.41200000000006-30.67 -131.96200000000007-30.12Q-132.51200000000006-29.57 -132.51200000000006-28.8L-132.51200000000006-28.8L-132.51200000000006-21.07Q-132.51200000000006-20.3 -131.96200000000007-19.78Q-131.41200000000006-19.25 -130.64200000000005-19.25L-130.64200000000005-19.25L-107.60200000000006-19.25Q-105.20200000000006-19.25 -103.52200000000006-17.57Q-101.84200000000007-15.89 -101.84200000000007-13.49L-101.84200000000007-13.49L-101.84200000000007-5.76Q-101.84200000000007-3.36 -103.52200000000006-1.68Q-105.20200000000006 0 -107.60200000000006 0L-107.60200000000006 0L-130.64200000000005 0Q-133.04200000000006 0 -134.72200000000007-1.68Q-136.40200000000007-3.36 -136.40200000000007-5.76L-136.40200000000007-5.76L-136.40200000000007-7.1L-132.51200000000006-7.1L-132.51200000000006-5.76Q-132.51200000000006-4.99 -131.96200000000007-4.44Q-131.41200000000006-3.89 -130.64200000000005-3.89L-130.64200000000005-3.89L-107.60200000000006-3.89Q-106.83200000000005-3.89 -106.28200000000007-4.44Q-105.73200000000006-4.99 -105.73200000000006-5.76L-105.73200000000006-5.76L-105.73200000000006-13.49Q-105.73200000000006-14.26 -106.28200000000007-14.78Q-106.83200000000005-15.31 -107.60200000000006-15.31L-107.60200000000006-15.31L-130.64200000000005-15.31Q-133.04200000000006-15.31 -134.72200000000007-16.99Q-136.40200000000007-18.67 -136.40200000000007-21.07L-136.40200000000007-21.07L-136.40200000000007-28.8Q-136.40200000000007-31.2 -134.72200000000007-32.88Q-133.04200000000006-34.56 -130.64200000000005-34.56L-130.64200000000005-34.56L-107.60200000000006-34.56Q-105.20200000000006-34.56 -103.52200000000006-32.88Q-101.84200000000007-31.2 -101.84200000000007-28.8ZM-53.09600000000006 0L-87.65600000000006 0L-87.65600000000006-34.61L-83.77600000000005-34.61L-83.77600000000005-3.89L-53.09600000000006-3.89L-53.09600000000006 0ZM-35.65400000000005-34.56L-35.65400000000005-34.56L-12.614000000000054-34.56Q-10.214000000000055-34.56 -8.534000000000056-32.88Q-6.854000000000056-31.2 -6.854000000000056-28.8L-6.854000000000056-28.8L-6.854000000000056-5.76Q-6.854000000000056-3.36 -8.534000000000056-1.68Q-10.214000000000055 0 -12.614000000000054 0L-12.614000000000054 0L-35.65400000000005 0Q-38.05400000000005 0 -39.73400000000005-1.68Q-41.41400000000006-3.36 -41.41400000000006-5.76L-41.41400000000006-5.76L-41.41400000000006-28.8Q-41.41400000000006-31.2 -39.73400000000005-32.88Q-38.05400000000005-34.56 -35.65400000000005-34.56ZM-35.65400000000005-3.89L-35.65400000000005-3.89L-12.614000000000054-3.89Q-11.844000000000058-3.89 -11.294000000000054-4.44Q-10.744000000000057-4.99 -10.744000000000057-5.76L-10.744000000000057-5.76L-10.744000000000057-28.8Q-10.744000000000057-29.57 -11.294000000000054-30.12Q-11.844000000000058-30.67 -12.614000000000054-30.67L-12.614000000000054-30.67L-35.65400000000005-30.67Q-36.424000000000056-30.67 -36.97400000000005-30.12Q-37.52400000000006-29.57 -37.52400000000006-28.8L-37.52400000000006-28.8L-37.52400000000006-5.76Q-37.52400000000006-4.99 -36.97400000000005-4.44Q-36.424000000000056-3.89 -35.65400000000005-3.89ZM 41.989999999999945-28.8L 41.989999999999945-28.8L 41.989999999999945-27.41L 38.099999999999945-27.41L 38.099999999999945-28.8Q 38.099999999999945-29.57  37.54999999999995-30.12Q 36.99999999999994-30.67  36.22999999999995-30.67L 36.22999999999995-30.67L 13.189999999999944-30.67Q 12.419999999999945-30.67  11.869999999999944-30.12Q 11.319999999999945-29.57  11.319999999999945-28.8L 11.319999999999945-28.8L 11.319999999999945-5.76Q 11.319999999999945-4.99  11.869999999999944-4.44Q 12.419999999999945-3.89  13.189999999999944-3.89L 13.189999999999944-3.89L 36.22999999999995-3.89Q 36.99999999999994-3.89  37.54999999999995-4.44Q 38.099999999999945-4.99  38.099999999999945-5.76L 38.099999999999945-5.76L 38.099999999999945-14.3L 29.559999999999945-14.3L 29.559999999999945-18.24L 41.989999999999945-18.24L 41.989999999999945-5.76Q 41.989999999999945-3.36  40.309999999999945-1.68Q 38.629999999999946 0  36.22999999999995 0L 36.22999999999995 0L 13.189999999999944 0Q 10.789999999999946 0  9.109999999999946-1.68Q 7.429999999999945-3.36  7.429999999999945-5.76L 7.429999999999945-5.76L 7.429999999999945-28.8Q 7.429999999999945-31.2  9.109999999999946-32.88Q 10.789999999999946-34.56  13.189999999999944-34.56L 13.189999999999944-34.56L 36.22999999999995-34.56Q 38.629999999999946-34.56  40.309999999999945-32.88Q 41.989999999999945-31.2  41.989999999999945-28.8ZM 62.11999999999995-34.56L 62.11999999999995-34.56L 85.15999999999994-34.56Q 87.55999999999995-34.56  89.23999999999995-32.88Q 90.91999999999996-31.2  90.91999999999996-28.8L 90.91999999999996-28.8L 90.91999999999996 0L 87.03999999999995 0L 87.03999999999995-12.62L 60.24999999999995-12.62L 60.24999999999995 0L 56.35999999999995 0L 56.35999999999995-28.8Q 56.35999999999995-31.2  58.03999999999995-32.88Q 59.71999999999995-34.56  62.11999999999995-34.56ZM 60.24999999999995-28.8L 60.24999999999995-16.51L 87.03999999999995-16.51L 87.03999999999995-28.8Q 87.03999999999995-29.57  86.47999999999995-30.12Q 85.92999999999995-30.67  85.15999999999994-30.67L 85.15999999999994-30.67L 62.11999999999995-30.67Q 61.35999999999995-30.67  60.79999999999995-30.12Q 60.24999999999995-29.57  60.24999999999995-28.8L 60.24999999999995-28.8ZM 110.72799999999994-34.56L 136.06799999999993-4.42L 136.06799999999993-34.56L 139.95799999999994-34.56L 139.95799999999994 0L 134.62799999999993 0L 109.28799999999994-30.14L 109.28799999999994 0L 105.39799999999994 0L 105.39799999999994-34.56L 110.72799999999994-34.56ZM 207.91999999999996-19.25L 207.91999999999996-34.56L 211.85999999999996-34.56L 211.85999999999996 0L 207.91999999999996 0L 207.91999999999996-15.31L 180.31999999999996-15.31L 180.31999999999996 0L 176.43999999999997 0L 176.43999999999997-34.56L 180.31999999999996-34.56L 180.31999999999996-19.25L 207.91999999999996-19.25ZM 226.32799999999995-34.56L 257.86799999999994-34.56L 257.86799999999994-30.67L 230.21799999999993-30.67L 230.21799999999993-19.25L 252.44799999999995-19.25L 252.44799999999995-15.31L 230.21799999999993-15.31L 230.21799999999993-3.89L 257.86799999999994-3.89L 257.86799999999994 0L 226.32799999999995 0L 226.32799999999995-34.56ZM 306.5159999999999-28.75L 306.5159999999999-28.75L 306.5159999999999-18.62Q 306.5159999999999-16.22  304.8359999999999-14.54Q 303.15599999999995-12.86  300.7559999999999-12.86L 300.7559999999999-12.86L 295.47599999999994-12.86L 306.3259999999999 0L 301.1859999999999 0L 290.3859999999999-12.86L 277.7159999999999-12.86Q 277.28599999999994-12.86  275.8459999999999-13.06L 275.8459999999999-13.06L 275.8459999999999 0L 271.9559999999999 0L 271.9559999999999-34.51L 300.7559999999999-34.51Q 303.15599999999995-34.51  304.8359999999999-32.83Q 306.5159999999999-31.15  306.5159999999999-28.75ZM 277.7159999999999-16.8L 277.7159999999999-16.8L 300.7559999999999-16.8Q 301.5259999999999-16.8  302.0559999999999-17.33Q 302.5759999999999-17.86  302.5759999999999-18.62L 302.5759999999999-18.62L 302.5759999999999-28.75Q 302.5759999999999-29.52  302.0559999999999-30.07Q 301.5259999999999-30.62  300.7559999999999-30.62L 300.7559999999999-30.62L 277.7159999999999-30.62Q 276.9459999999999-30.62  276.3959999999999-30.07Q 275.8459999999999-29.52  275.8459999999999-28.75L 275.8459999999999-28.75L 275.8459999999999-18.62Q 275.8459999999999-17.86  276.3959999999999-17.33Q 276.9459999999999-16.8  277.7159999999999-16.8ZM 320.6959999999999-34.56L 352.23599999999993-34.56L 352.23599999999993-30.67L 324.58599999999996-30.67L 324.58599999999996-19.25L 346.8159999999999-19.25L 346.8159999999999-15.31L 324.58599999999996-15.31L 324.58599999999996-3.89L 352.23599999999993-3.89L 352.23599999999993 0L 320.6959999999999 0L 320.6959999999999-34.56Z"></path> -->
    </svg>
    <!-- <path d="M-11.647392691089635 16.01516495024825h535.2947853821793v479.9696700995035h-535.2947853821793z M0 0v512h512v-512z" style=""></path>
    <g class="css-0" style="">
        <path class="_sw1 css-jzojre" d="M0.000027273178893949535 0.00003122770681329712L 0.000027273178893949535 0.00003122770681329712L0.000027273178893949535 0.00003122770681329712L0.000027273178893949535 0.00003122770681329712 Z" fill="transparent" stroke="red"></path>
        <path class="_sw1 css-jzojre" d="M16.07750972000454 46.18248336054694L 94.14627103064642 46.18248336054694L94.14627103064642 132.79218111183803L16.07750972000454 132.79218111183803 Z" fill="transparent" stroke="red"></path>
        <path class="_sw1 css-jzojre" d="M95.3719957638084 71.6118007893643L 416.62787459410157 71.6118007893643L416.62787459410157 392.0294142551469L95.3719957638084 392.0294142551469 Z" fill="transparent" stroke="red"></path>
        <path class="_sw1 css-jzojre" d="M183.39463116262226 376.06359004016565L 328.68852147223834 376.06359004016565L328.68852147223834 418.19597485535303L183.39463116262226 418.19597485535303 Z" fill="transparent" stroke="red"></path>
        <path class="_sw1 css-jzojre" d="M115.52341500021157 426.61707480125415L 396.47662036787995 426.61707480125415L396.47662036787995 440.3881992106357L115.52341500021157 440.3881992106357 Z" fill="transparent" stroke="red"></path>
    </g> -->
</svg>